<svg xmlns="http://www.w3.org/2000/svg" xmlns:svg="http://www.w3.org/2000/svg" id="svg6" width="486.508" height="236.746" version="1.1" viewBox="0 0 486.508 236.746"><metadata id="metadata12"/><rect id="rect933" width="486.508" height="236.746" x="0" y="0" style="opacity:.98000004;fill:none;fill-opacity:1;stroke-width:.93944699"/><path style="fill:none" id="path2" d="m 215.00069,55.738978 h 24 v 24 h -24 z"/><path style="fill:#000;fill-opacity:1;stroke-width:4.90508509" id="path4" d="m 235.11865,35.593216 c -27.07607,0 -49.05085,21.97478 -49.05085,49.050848 0,27.076066 21.97478,49.050846 49.05085,49.050846 27.07607,0 49.05085,-21.97478 49.05085,-49.050846 0,-27.076068 -21.97478,-49.050848 -49.05085,-49.050848 z m 22.07288,68.671184 h -41.69322 c -8.14244,0 -14.71525,-6.572811 -14.71525,-14.715252 0,-8.14244 6.57281,-14.715254 14.71525,-14.715254 l 0.68671,0.04905 c 2.15824,-8.485796 9.76112,-14.764306 18.93363,-14.764306 10.84024,0 19.62034,8.780103 19.62034,19.62034 h 2.45254 c 6.76902,0 12.26271,5.493695 12.26271,12.262712 0,6.769017 -5.49369,12.26271 -12.26271,12.26271 z"/><text id="text912" x="46.196" y="175.942" xml:space="preserve" style="font-style:normal;font-weight:400;font-size:40px;line-height:1.25;font-family:sans-serif;letter-spacing:0;word-spacing:0;fill:#000;fill-opacity:1;stroke:none"><tspan style="font-style:normal;font-variant:normal;font-weight:400;font-stretch:normal;font-family:Ubuntu;-inkscape-font-specification:Ubuntu" id="tspan910" x="46.196" y="175.942">Docker Swarm Rocks</tspan></text></svg>